<svg width="32" height="32" viewBox="0 0 32 32" fill="none" xmlns="http://www.w3.org/2000/svg">
  <!-- Simplified version of the main logo for favicon -->
  
  <!-- Outer mystical ring -->
  <circle cx="16" cy="16" r="15" fill="none" stroke="url(#mysticalGradient)" stroke-width="1.5" opacity="0.8"/>
  
  <!-- Central vault structure -->
  <rect x="8" y="6" width="16" height="20" rx="1" fill="url(#vaultGradient)" stroke="url(#vaultBorder)" stroke-width="0.5"/>
  
  <!-- Vault door -->
  <rect x="10" y="8" width="12" height="16" rx="0.5" fill="url(#doorGradient)" stroke="url(#doorBorder)" stroke-width="0.3"/>
  
  <!-- Mystical lock -->
  <circle cx="16" cy="12" r="2" fill="url(#lockGradient)" stroke="url(#lockBorder)" stroke-width="0.3"/>
  <rect x="15" y="12" width="2" height="4" rx="0.5" fill="url(#lockGradient)" stroke="url(#lockBorder)" stroke-width="0.3"/>
  
  <!-- Key sparkles -->
  <g opacity="0.8">
    <path d="M6 6 L7 8 L9 8 L8 9 L9 11 L6 10 L3 11 L4 9 L3 8 L5 8 Z" fill="url(#sparkleGradient)"/>
    <path d="M26 6 L27 8 L29 8 L28 9 L29 11 L26 10 L23 11 L24 9 L23 8 L25 8 Z" fill="url(#sparkleGradient)"/>
    <path d="M6 26 L7 28 L9 28 L8 29 L9 31 L6 30 L3 31 L4 29 L3 28 L5 28 Z" fill="url(#sparkleGradient)"/>
    <path d="M26 26 L27 28 L29 28 L28 29 L29 31 L26 30 L23 31 L24 29 L23 28 L25 28 Z" fill="url(#sparkleGradient)"/>
  </g>
  
  <!-- Gradients -->
  <defs>
    <linearGradient id="mysticalGradient" x1="0%" y1="0%" x2="100%" y2="100%">
      <stop offset="0%" style="stop-color:#8B5CF6;stop-opacity:1" />
      <stop offset="50%" style="stop-color:#A855F7;stop-opacity:1" />
      <stop offset="100%" style="stop-color:#C084FC;stop-opacity:1" />
    </linearGradient>
    
    <linearGradient id="vaultGradient" x1="0%" y1="0%" x2="100%" y2="100%">
      <stop offset="0%" style="stop-color:#1F2937;stop-opacity:1" />
      <stop offset="50%" style="stop-color:#111827;stop-opacity:1" />
      <stop offset="100%" style="stop-color:#0F172A;stop-opacity:1" />
    </linearGradient>
    
    <linearGradient id="vaultBorder" x1="0%" y1="0%" x2="100%" y2="100%">
      <stop offset="0%" style="stop-color:#6B7280;stop-opacity:1" />
      <stop offset="100%" style="stop-color:#374151;stop-opacity:1" />
    </linearGradient>
    
    <linearGradient id="doorGradient" x1="0%" y1="0%" x2="100%" y2="100%">
      <stop offset="0%" style="stop-color:#374151;stop-opacity:1" />
      <stop offset="50%" style="stop-color:#1F2937;stop-opacity:1" />
      <stop offset="100%" style="stop-color:#111827;stop-opacity:1" />
    </linearGradient>
    
    <linearGradient id="doorBorder" x1="0%" y1="0%" x2="100%" y2="100%">
      <stop offset="0%" style="stop-color:#9CA3AF;stop-opacity:1" />
      <stop offset="100%" style="stop-color:#6B7280;stop-opacity:1" />
    </linearGradient>
    
    <linearGradient id="lockGradient" x1="0%" y1="0%" x2="100%" y2="100%">
      <stop offset="0%" style="stop-color:#F59E0B;stop-opacity:1" />
      <stop offset="50%" style="stop-color:#D97706;stop-opacity:1" />
      <stop offset="100%" style="stop-color:#B45309;stop-opacity:1" />
    </linearGradient>
    
    <linearGradient id="lockBorder" x1="0%" y1="0%" x2="100%" y2="100%">
      <stop offset="0%" style="stop-color:#FCD34D;stop-opacity:1" />
      <stop offset="100%" style="stop-color:#F59E0B;stop-opacity:1" />
    </linearGradient>
    
    <linearGradient id="sparkleGradient" x1="0%" y1="0%" x2="100%" y2="100%">
      <stop offset="0%" style="stop-color:#FBBF24;stop-opacity:1" />
      <stop offset="50%" style="stop-color:#F59E0B;stop-opacity:1" />
      <stop offset="100%" style="stop-color:#D97706;stop-opacity:1" />
    </linearGradient>
  </defs>
</svg>
