<svg width="64" height="64" viewBox="0 0 64 64" fill="none" xmlns="http://www.w3.org/2000/svg">
  <!-- Outer mystical ring with arcane symbols -->
  <circle cx="32" cy="32" r="30" fill="none" stroke="url(#mysticalGradient)" stroke-width="2" opacity="0.8"/>
  
  <!-- Inner protective ring -->
  <circle cx="32" cy="32" r="24" fill="none" stroke="url(#protectiveGradient)" stroke-width="1.5" opacity="0.6"/>
  
  <!-- Central vault structure -->
  <rect x="20" y="16" width="24" height="32" rx="2" fill="url(#vaultGradient)" stroke="url(#vaultBorder)" stroke-width="1"/>
  
  <!-- Vault door with mystical lock -->
  <rect x="24" y="20" width="16" height="24" rx="1" fill="url(#doorGradient)" stroke="url(#doorBorder)" stroke-width="0.5"/>
  
  <!-- Mystical lock mechanism -->
  <circle cx="32" cy="28" r="3" fill="url(#lockGradient)" stroke="url(#lockBorder)" stroke-width="0.5"/>
  <rect x="30" y="28" width="4" height="6" rx="1" fill="url(#lockGradient)" stroke="url(#lockBorder)" stroke-width="0.5"/>
  
  <!-- Reputation stars/sparkles -->
  <g opacity="0.9">
    <!-- Top sparkles -->
    <path d="M16 12 L18 16 L22 16 L19 19 L20 23 L16 20 L12 23 L13 19 L10 16 L14 16 Z" fill="url(#sparkleGradient)"/>
    <path d="M48 12 L50 16 L54 16 L51 19 L52 23 L48 20 L44 23 L45 19 L42 16 L46 16 Z" fill="url(#sparkleGradient)"/>
    
    <!-- Side sparkles -->
    <path d="M8 32 L12 34 L12 38 L8 36 L4 38 L4 34 Z" fill="url(#sparkleGradient)"/>
    <path d="M56 32 L60 34 L60 38 L56 36 L52 38 L52 34 Z" fill="url(#sparkleGradient)"/>
    
    <!-- Bottom sparkles -->
    <path d="M20 52 L22 56 L26 56 L23 59 L24 63 L20 60 L16 63 L17 59 L14 56 L18 56 Z" fill="url(#sparkleGradient)"/>
    <path d="M44 52 L46 56 L50 56 L47 59 L48 63 L44 60 L40 63 L41 59 L38 56 L42 56 Z" fill="url(#sparkleGradient)"/>
  </g>
  
  <!-- Arcane symbols around the vault -->
  <g opacity="0.7">
    <!-- Top arcane symbol -->
    <path d="M32 8 L34 12 L30 12 Z" fill="url(#arcaneGradient)"/>
    <circle cx="32" cy="10" r="1" fill="url(#arcaneGradient)"/>
    
    <!-- Bottom arcane symbol -->
    <path d="M32 56 L34 60 L30 60 Z" fill="url(#arcaneGradient)"/>
    <circle cx="32" cy="58" r="1" fill="url(#arcaneGradient)"/>
    
    <!-- Left arcane symbol -->
    <path d="M8 32 L12 34 L12 30 Z" fill="url(#arcaneGradient)"/>
    <circle cx="10" cy="32" r="1" fill="url(#arcaneGradient)"/>
    
    <!-- Right arcane symbol -->
    <path d="M56 32 L60 34 L60 30 Z" fill="url(#arcaneGradient)"/>
    <circle cx="58" cy="32" r="1" fill="url(#arcaneGradient)"/>
  </g>
  
  <!-- Glowing effect -->
  <circle cx="32" cy="32" r="28" fill="none" stroke="url(#glowGradient)" stroke-width="1" opacity="0.3"/>
  
  <!-- Gradients -->
  <defs>
    <linearGradient id="mysticalGradient" x1="0%" y1="0%" x2="100%" y2="100%">
      <stop offset="0%" style="stop-color:#8B5CF6;stop-opacity:1" />
      <stop offset="50%" style="stop-color:#A855F7;stop-opacity:1" />
      <stop offset="100%" style="stop-color:#C084FC;stop-opacity:1" />
    </linearGradient>
    
    <linearGradient id="protectiveGradient" x1="0%" y1="0%" x2="100%" y2="100%">
      <stop offset="0%" style="stop-color:#3B82F6;stop-opacity:1" />
      <stop offset="50%" style="stop-color:#1D4ED8;stop-opacity:1" />
      <stop offset="100%" style="stop-color:#1E40AF;stop-opacity:1" />
    </linearGradient>
    
    <linearGradient id="vaultGradient" x1="0%" y1="0%" x2="100%" y2="100%">
      <stop offset="0%" style="stop-color:#1F2937;stop-opacity:1" />
      <stop offset="50%" style="stop-color:#111827;stop-opacity:1" />
      <stop offset="100%" style="stop-color:#0F172A;stop-opacity:1" />
    </linearGradient>
    
    <linearGradient id="vaultBorder" x1="0%" y1="0%" x2="100%" y2="100%">
      <stop offset="0%" style="stop-color:#6B7280;stop-opacity:1" />
      <stop offset="100%" style="stop-color:#374151;stop-opacity:1" />
    </linearGradient>
    
    <linearGradient id="doorGradient" x1="0%" y1="0%" x2="100%" y2="100%">
      <stop offset="0%" style="stop-color:#374151;stop-opacity:1" />
      <stop offset="50%" style="stop-color:#1F2937;stop-opacity:1" />
      <stop offset="100%" style="stop-color:#111827;stop-opacity:1" />
    </linearGradient>
    
    <linearGradient id="doorBorder" x1="0%" y1="0%" x2="100%" y2="100%">
      <stop offset="0%" style="stop-color:#9CA3AF;stop-opacity:1" />
      <stop offset="100%" style="stop-color:#6B7280;stop-opacity:1" />
    </linearGradient>
    
    <linearGradient id="lockGradient" x1="0%" y1="0%" x2="100%" y2="100%">
      <stop offset="0%" style="stop-color:#F59E0B;stop-opacity:1" />
      <stop offset="50%" style="stop-color:#D97706;stop-opacity:1" />
      <stop offset="100%" style="stop-color:#B45309;stop-opacity:1" />
    </linearGradient>
    
    <linearGradient id="lockBorder" x1="0%" y1="0%" x2="100%" y2="100%">
      <stop offset="0%" style="stop-color:#FCD34D;stop-opacity:1" />
      <stop offset="100%" style="stop-color:#F59E0B;stop-opacity:1" />
    </linearGradient>
    
    <linearGradient id="sparkleGradient" x1="0%" y1="0%" x2="100%" y2="100%">
      <stop offset="0%" style="stop-color:#FBBF24;stop-opacity:1" />
      <stop offset="50%" style="stop-color:#F59E0B;stop-opacity:1" />
      <stop offset="100%" style="stop-color:#D97706;stop-opacity:1" />
    </linearGradient>
    
    <linearGradient id="arcaneGradient" x1="0%" y1="0%" x2="100%" y2="100%">
      <stop offset="0%" style="stop-color:#EC4899;stop-opacity:1" />
      <stop offset="100%" style="stop-color:#BE185D;stop-opacity:1" />
    </linearGradient>
    
    <radialGradient id="glowGradient" cx="50%" cy="50%" r="50%">
      <stop offset="0%" style="stop-color:#8B5CF6;stop-opacity:0.8" />
      <stop offset="50%" style="stop-color:#A855F7;stop-opacity:0.4" />
      <stop offset="100%" style="stop-color:#C084FC;stop-opacity:0.1" />
    </radialGradient>
  </defs>
</svg>
